<svg id="Group_281" data-name="Group 281" xmlns="http://www.w3.org/2000/svg" xmlns:xlink="http://www.w3.org/1999/xlink" width="95.946" height="81.045" viewBox="0 0 95.946 81.045">
  <defs>
    <clipPath id="clip-path">
      <rect id="Rectangle_718" data-name="Rectangle 718" width="95.946" height="81.045" fill="none"></rect>
    </clipPath>
  </defs>
  <g id="Group_280" data-name="Group 280" clip-path="url(#clip-path)">
    <path id="Path_175" data-name="Path 175" d="M75.147,5.139c4.958-3.3,16.381-4.836,19.758.237C98.379,10.6,92.455,20.395,87.5,23.695l-11.5,7.656a11.176,11.176,0,0,0-4.958,10.064L73,70.14a5.6,5.6,0,0,1-2.477,5.016l-8.147,5.422a2.794,2.794,0,0,1-4.2-1.471l-7.76-24.346a4.168,4.168,0,0,0-6.281-2.2L33.816,59.422,33.111,71.94A2.8,2.8,0,0,1,31.873,74.1l-6.084,4.049a2.482,2.482,0,0,1-3.471-.806,2.643,2.643,0,0,1-.211-.487L18.867,66.708A32.494,32.494,0,0,0,8.974,51.844L.861,44.937a2.55,2.55,0,0,1-.454-.513,2.444,2.444,0,0,1,.683-3.383l6.084-4.049a2.8,2.8,0,0,1,2.473-.307l11.82,4.182L31.781,34a4.168,4.168,0,0,0,.391-6.645L12.709,10.8a2.792,2.792,0,0,1,.264-4.443L21.121.934A5.575,5.575,0,0,1,26.706.589l25.74,12.9a11.175,11.175,0,0,0,11.2-.688Z" transform="translate(0 0)" fill="#354b64"></path>
  </g>
</svg>