<?xml version="1.0"?>

<svg version="1.1" id="Layer_1" xmlns="http://www.w3.org/2000/svg" xmlns:xlink="http://www.w3.org/1999/xlink" x="0px" y="0px" viewBox="0 0 139.9 72.8" enable-background="new 0 0 139.9 72.8" xml:space="preserve">
<g>
&#x9;<path fill="#FFFFFF" d="M70,2.7c7.4,0,14.8,0.6,22.1,1.7c14.9,2.3,29.2,7,42.6,13.8c1.5,0.8,2.5,2.3,2.5,4v28.3&#xA;&#x9;&#x9;c0,1.7-0.9,3.2-2.5,4c-13.4,6.8-27.8,11.5-42.6,13.8c-7.3,1.1-14.8,1.7-22.1,1.7c-7.4,0-14.8-0.6-22.1-1.7&#xA;&#x9;&#x9;c-14.9-2.3-29.2-7-42.6-13.8c-1.5-0.8-2.5-2.3-2.5-4V22.3c0-1.7,0.9-3.2,2.5-4C18.6,11.4,32.9,6.8,47.8,4.4&#xA;&#x9;&#x9;C55.1,3.3,62.6,2.7,70,2.7 M70,0c-7.5,0-15.1,0.6-22.6,1.8C32.2,4.1,17.6,8.9,3.9,15.8l0,0C1.5,17.1,0,19.6,0,22.3v28.3&#xA;&#x9;&#x9;c0,2.7,1.5,5.2,3.9,6.4l0,0c13.7,7,28.3,11.7,43.4,14.1c7.4,1.2,15,1.8,22.6,1.8s15.1-0.6,22.6-1.8C107.7,68.7,122.3,64,136,57h0&#xA;&#x9;&#x9;c2.4-1.2,3.9-3.7,3.9-6.4V22.3c0-2.7-1.5-5.2-3.9-6.4l0,0c-13.7-7-28.3-11.7-43.4-14.1C85.1,0.6,77.5,0,70,0L70,0z"></path>
&#x9;<g>
&#x9;&#x9;<path fill="#FFFFFF" d="M135.9,3.7v2.4h-0.5V3.7h-0.8V3.3h2.1v0.4H135.9z M139.4,6.1V3.8L138.7,6h-0.4l-0.8-2.2v2.3h-0.5V3.3h0.8&#xA;&#x9;&#x9;&#x9;l0.7,2l0.7-2h0.7v2.8H139.4z"></path>
&#x9;</g>
&#x9;<g>
&#x9;&#x9;<path fill="#FFFFFF" d="M70.1,26.7c-2,0-3.6,1.6-3.6,3.6v1.4c0,0.9,0,1,0.6,2l4,7.1c0,0,0,0,0,0c0,0,0,0.1,0,0.2v1.4&#xA;&#x9;&#x9;&#x9;c0,0.6-0.5,1.1-1,1.1c-0.6,0-1-0.5-1-1.1v-1c0-0.5-0.4-0.8-0.8-0.8h-0.9c-0.5,0-0.8,0.4-0.8,0.8v1c0,2,1.6,3.6,3.6,3.6&#xA;&#x9;&#x9;&#x9;c2,0,3.6-1.6,3.6-3.6v-1.4c0-0.9,0-1-0.6-2l-4-7.1c0,0,0,0,0,0c0,0,0-0.1,0-0.2v-1.4c0-0.6,0.5-1,1-1c0.6,0,1,0.5,1,1v1&#xA;&#x9;&#x9;&#x9;c0,0.5,0.4,0.8,0.8,0.8h0.9c0.5,0,0.8-0.4,0.8-0.8v-1C73.7,28.3,72.1,26.7,70.1,26.7z"></path>
&#x9;&#x9;<path fill="#FFFFFF" d="M22.2,20.6c-0.2,0-0.4,0-0.6,0c-2.4,0-4.1,2.2-4.1,5.2l0,25.6c0,0.2,0.1,0.5,0.2,0.6&#xA;&#x9;&#x9;&#x9;c0.1,0.2,0.3,0.3,0.5,0.3c0,0,0.1,0,0.1,0l1.2-0.2c0.5-0.1,0.8-0.5,0.8-1.1l0-13.2l3.5-0.1l0,12.6c0,0.2,0.1,0.4,0.2,0.6&#xA;&#x9;&#x9;&#x9;c0.2,0.2,0.4,0.3,0.7,0.2l1.2-0.2c0.5-0.1,0.8-0.5,0.8-1l0-23.4C26.8,23.7,24.7,21,22.2,20.6z M23.9,26.4v8.1l-3.5-0.1V26&#xA;&#x9;&#x9;&#x9;c0-1.2,0.8-2.1,1.8-2C23.1,24.1,23.9,25.2,23.9,26.4z"></path>
&#x9;&#x9;<path fill="#FFFFFF" d="M38.6,23.5l-1.2-0.2c-0.5-0.1-0.9,0.3-0.9,0.8v24.6c0,0.4,0.3,0.8,0.7,0.8c0,0,0.1,0,0.1,0l1.2-0.2&#xA;&#x9;&#x9;&#x9;c0.5-0.1,0.8-0.5,0.8-0.9V24.5C39.4,24,39,23.6,38.6,23.5z"></path>
&#x9;&#x9;<path fill="#FFFFFF" d="M53.6,25.9l-3.2-0.5c-0.4-0.1-0.8,0-1.1,0.3c-0.2,0.2-0.4,0.5-0.4,0.8l0,20.3c0,0.2,0.1,0.4,0.2,0.5&#xA;&#x9;&#x9;&#x9;c0.1,0.1,0.3,0.2,0.5,0.2c0,0,0.1,0,0.1,0l1.2-0.2c0.4-0.1,0.8-0.4,0.8-0.8v-8.8l1.7,0l0-0.2l0.1,0.2c0.5,0,0.9,0.1,1.2,0.4&#xA;&#x9;&#x9;&#x9;c0.3,0.2,0.5,0.6,0.5,0.9v7c0,0.4,0.4,0.7,0.9,0.6l1.2-0.2c0.5-0.1,0.8-0.4,0.8-0.8v-6.7c0-0.9-0.4-1.8-1.2-2.4&#xA;&#x9;&#x9;&#x9;c0.8-0.7,1.2-1.5,1.2-2.4l0-3.8C58.2,28.2,56.1,26.3,53.6,25.9z M55.3,29.9v4c0,0.3-0.2,0.6-0.5,0.9c-0.3,0.3-0.8,0.4-1.3,0.4&#xA;&#x9;&#x9;&#x9;c0,0,0,0,0,0l-1.7,0v-7l1.7,0.2C54.5,28.4,55.3,29.1,55.3,29.9z"></path>
&#x9;&#x9;<path fill="#FFFFFF" d="M90,25l-1.2,0.1c-0.4,0.1-0.8,0.4-0.8,0.8v9.2l-3.5,0v-8.8c0-0.4-0.4-0.7-0.9-0.6l-1.2,0.1&#xA;&#x9;&#x9;&#x9;c-0.4,0.1-0.8,0.4-0.8,0.8v19.4c0,0.4,0.3,0.7,0.8,0.8l1.2,0.1c0.5,0.1,0.9-0.2,0.9-0.6v-8.8l3.5,0v9.2c0,0.4,0.3,0.8,0.8,0.8&#xA;&#x9;&#x9;&#x9;l1.2,0.1c0,0,0.1,0,0.1,0c0.4,0,0.7-0.3,0.7-0.7V25.7C90.8,25.2,90.4,24.9,90,25z"></path>
&#x9;&#x9;<path fill="#FFFFFF" d="M102.6,23.3l-1.2,0.1c-0.4,0.1-0.8,0.5-0.8,0.9l0,24c0,0.4,0.4,0.8,0.8,0.9l1.2,0.2c0,0,0.1,0,0.1,0&#xA;&#x9;&#x9;&#x9;c0.4,0,0.8-0.3,0.8-0.8l0-24.6C103.5,23.7,103.1,23.3,102.6,23.3z"></path>
&#x9;&#x9;<path fill="#FFFFFF" d="M122.8,26.6c0-3-2.1-5.3-4.7-5l-3.8,0.5c-0.5,0.1-0.8,0.6-0.8,1v27.1c0,0.5,0.4,0.9,0.8,1l1.2,0.1&#xA;&#x9;&#x9;&#x9;c0,0,0.1,0,0.1,0c0.4,0,0.7-0.4,0.7-0.9V38.2l1.8,0c2.5,0,4.6-2.5,4.6-5.5L122.8,26.6z M119.9,32.8c0,1.2-0.8,2.1-1.7,2.1l-1.8,0&#xA;&#x9;&#x9;&#x9;V25l1.8-0.2c1-0.1,1.7,0.8,1.7,1.9L119.9,32.8z"></path>
&#x9;</g>
</g>
</svg>